<?xml version="1.0" encoding="utf-8"?>
<!-- Generator: Adobe Illustrator 27.5.0, SVG Export Plug-In . SVG Version: 6.00 Build 0)  -->
<svg version="1.1" xmlns="http://www.w3.org/2000/svg" xmlns:xlink="http://www.w3.org/1999/xlink" x="0px" y="0px"
	 viewBox="0 0 750 500" style="enable-background:new 0 0 750 500;" xml:space="preserve">
<g id="BACKGROUND">
	<linearGradient id="SVGID_1_" gradientUnits="userSpaceOnUse" x1="804.5198" y1="-87.1075" x2="-185.4318" y2="689.8533">
		<stop  offset="0" style="stop-color:#3D4351"/>
		<stop  offset="1" style="stop-color:#010214"/>
	</linearGradient>
	<rect style="fill:url(#SVGID_1_);" width="750" height="500"/>
</g>
<g id="OBJECTS">
	<g>
		<defs>
			<rect id="SVGID_00000045582041167899920970000013279036259849329317_" width="750" height="500"/>
		</defs>
		<clipPath id="SVGID_00000076603922824280114230000012930576689271554237_">
			<use xlink:href="#SVGID_00000045582041167899920970000013279036259849329317_"  style="overflow:visible;"/>
		</clipPath>
		<g style="clip-path:url(#SVGID_00000076603922824280114230000012930576689271554237_);">
			<g>
				<path style="fill:none;stroke:#010214;stroke-miterlimit:10;" d="M-318.564-163.768
					c-72.353,43.865-121.621,117.934-127.061,222.905c-2.286,44.1,9.671,84.898,31.361,120.282
					c56.752,92.583,155.858,122.63,229.262,190.585c32.251,29.857,58.926,69.596,92.756,95
					c33.888,25.447,73.816,37.51,111.95,44.063c37.266,6.403,75.685,7.573,113.376,11.383
					c56.011,5.662,112.628,18.626,167.449,38.718c41.396,15.172,88.491,34.206,121.228,73.57"/>
				<path style="fill:none;stroke:#010214;stroke-miterlimit:10;" d="M418,633.797c-40.341-47.43-99.293-68.221-149.533-84.366
					c-45.378-14.583-92.125-24.571-138.39-30.363c-37.282-4.667-75.477-7.078-112.429-14.295
					c-36.703-7.168-74.385-19.135-106.585-42.963c-31.789-23.523-58.23-62.211-88.256-90.858
					c-67.789-64.677-163.077-92.258-216.765-178.961c-20.404-32.951-33.141-72.323-30.13-113.644
					c2.063-28.308,8.247-55.236,17.037-80.961c8.21-24.03,18.724-47.601,29.771-69.807c5.913-11.886,12.316-23.816,19.279-34.77
					c6.944-10.925,14.874-21.333,23.062-30.075c8.989-9.597,18.683-16.949,29.483-24.13"/>
				<path style="fill:none;stroke:#010214;stroke-miterlimit:10;" d="M414.767,634.756c-40.728-46.851-98.826-68.747-149.077-85.316
					c-45.232-14.914-91.882-25.056-138.109-31.698c-37.031-5.321-74.805-9.132-111.472-17.14
					c-34.475-7.53-69.779-18.713-101.251-41.815c-31.253-22.941-55.05-59.619-83.782-86.732
					c-64.199-60.581-153.624-86.208-204.251-167.724c-19.273-31.033-32.344-68.635-28.792-107.148
					c2.615-28.351,10.75-54.319,20.311-80.3c9.092-24.707,19.339-49.33,28.317-74.159c4.753-13.144,9.47-26.456,14.649-39.36
					c5.083-12.667,11.477-24.754,18.456-34.808c8.109-11.68,16.921-19.452,28.13-27.58"/>
				<path style="fill:none;stroke:#010214;stroke-miterlimit:10;" d="M416.351,634.933c-41.293-46.204-98.343-68.759-148.817-85.554
					c-45.124-15.015-91.675-25.094-137.854-32.36c-36.785-5.788-73.854-11.028-110.506-19.432
					c-32.773-7.515-67.354-18.072-96.001-40.202c-28.709-22.176-52.489-56.367-79.497-82.273
					c-59.271-56.853-144.411-80.224-191.988-155.979c-18.123-28.857-31.438-64.375-27.575-100.655
					c3.055-28.686,13.208-54.14,23.316-80.08c9.857-25.296,20.129-51.233,26.502-78.586c3.36-14.423,6.288-29.602,9.843-43.666
					c3.528-13.96,7.759-27.682,13.705-39.334c7.017-13.752,14.979-21.851,26.639-31.106"/>
				<path style="fill:none;stroke:#010214;stroke-miterlimit:10;" d="M419.659,634.822c-41.877-45.476-97.94-68.611-148.628-85.541
					c-45.027-15.039-91.483-24.973-137.613-32.784c-36.548-6.188-73.457-12.26-109.549-21.535
					c-31.34-8.054-62.507-18.337-90.796-38.493c-27.829-19.828-49.411-53.309-75.26-77.79
					c-56.818-53.813-134.523-74.985-179.743-144.552c-17.097-26.303-30.353-60.591-26.282-94.297
					c3.512-29.073,15.681-54.177,26.191-80.254c10.589-26.274,20.187-54.111,24.457-82.971c2.245-15.169,3.168-32.069,4.934-47.596
					c1.748-15.362,4.087-30.5,8.873-43.548c5.744-15.662,12.972-24.115,25.062-34.588"/>
				<path style="fill:none;stroke:#010214;stroke-miterlimit:10;" d="M423.637,634.587c-42.454-44.709-97.582-68.405-148.468-85.432
					c-44.935-15.035-91.302-24.793-137.38-33.116c-36.323-6.561-72.786-13.679-108.608-23.573
					c-29.081-8.032-59.976-16.768-85.622-36.812c-25.555-19.973-46.936-50.09-71.027-73.386
					c-51.844-50.132-125.499-69.394-167.45-133.708c-15.986-24.507-29.061-56.702-24.851-88.117
					c3.954-29.505,18.088-54.522,28.975-80.796c11.251-27.153,19.876-56.255,22.23-87.27c1.246-16.411-0.006-34.352-0.043-51.128
					c-0.037-16.647,0.815-31.853,3.988-47.419c3.212-15.76,11.812-30.154,23.42-37.99"/>
				<path style="fill:none;stroke:#010214;stroke-miterlimit:10;" d="M427.926,634.282c-43.013-43.916-97.255-68.176-148.322-85.279
					c-44.846-15.019-91.228-24.606-137.154-33.409c-36.033-6.906-72.143-15.034-107.685-25.588
					c-27.858-8.273-55.585-17.229-80.475-35.198c-24.469-17.664-43.749-47.264-66.784-69.093
					c-48.906-46.347-116.136-64.286-155.098-123.529c-14.91-22.671-27.535-53.108-23.267-82.134
					c4.416-30.035,20.439-55.073,31.675-81.691c11.88-28.141,19.742-58.751,19.838-91.465c0.051-17.519-2.917-36.216-5.068-54.26
					c-2.021-16.944-3.187-34.271-0.934-50.944c2.337-17.293,9.77-32.869,21.721-41.297"/>
				<path style="fill:none;stroke:#010214;stroke-miterlimit:10;" d="M432.392,633.926c-43.551-43.105-96.954-67.938-148.185-85.102
					c-44.762-14.997-91.177-24.41-136.934-33.679c-35.745-7.241-71.504-16.356-106.779-27.595
					c-25.544-8.138-52.912-15.889-75.354-33.666c-22.405-17.748-41.414-44.414-62.525-64.925
					c-43.656-42.415-107.342-59.605-142.688-114.042c-13.334-20.537-26.075-49.638-21.527-76.353
					c5.268-30.942,22.143-55.639,34.288-82.924c12.902-28.988,19.97-62.431,17.291-95.545c-1.49-18.417-6.072-38.026-10.129-56.996
					c-3.787-17.709-6.792-36.02-5.882-54.125c0.919-18.269,7.65-35.419,19.969-44.507"/>
				<path style="fill:none;stroke:#010214;stroke-miterlimit:10;" d="M436.968,633.529c-44.066-42.278-96.678-67.697-148.053-84.911
					c-44.679-14.971-91.129-24.21-136.718-33.937c-35.476-7.569-70.829-17.677-105.892-29.602
					c-23.813-8.099-48.74-15.728-70.259-32.224c-21.529-16.503-38.263-41.737-58.25-60.886
					c-40.573-38.869-98.061-55.453-130.231-105.256c-12.265-18.988-24.128-46.251-19.633-70.779
					c5.787-31.584,24.843-56.729,36.805-84.484c13.074-30.336,19.669-64.529,14.596-99.503
					c-2.814-19.399-9.564-39.784-15.211-59.341c-5.322-18.435-10.363-37.253-10.845-56.965
					c-0.518-21.227,6.305-34.975,18.168-47.618"/>
				<path style="fill:none;stroke:#010214;stroke-miterlimit:10;" d="M441.617,633.097c-44.557-41.44-96.426-67.456-147.926-84.712
					c-44.6-14.944-91.083-24.008-136.508-34.188c-35.227-7.894-70.299-18.855-105.023-31.612
					c-21.924-8.055-45.275-15.2-65.189-30.873c-19.998-15.739-35.485-38.988-53.959-56.98
					c-36.667-35.709-89.217-51.753-117.737-97.172c-11.601-18.475-21.521-42.702-17.589-65.418
					c5.481-31.659,26.977-57.878,39.219-86.359c13.551-31.523,18.553-66.104,11.757-103.332
					c-3.791-20.766-12.969-41.554-20.303-61.302c-7.239-19.494-14.413-39.974-15.815-59.47
					c-1.504-20.917,3.226-35.764,16.321-50.628"/>
				<path style="fill:none;stroke:#010214;stroke-miterlimit:10;" d="M446.316,632.633c-45.023-40.591-96.194-67.217-147.803-84.507
					c-44.524-14.916-91.037-23.808-136.303-34.435c-34.972-8.21-69.893-19.999-104.173-33.629
					c-20.143-8.009-41.825-14.909-60.146-29.617c-18.424-14.791-32.589-36.282-49.652-53.207
					c-32.677-32.413-80.181-48.067-105.218-89.789c-10.435-17.389-19.162-39.375-15.399-60.271
					c5.911-32.829,28.269-58.829,41.522-88.538c14.401-32.281,17.668-70.368,8.778-107.025
					c-5.268-21.724-16.061-42.786-25.394-62.886c-8.934-19.24-18.525-41.027-20.784-61.645c-2.45-22.358,1.112-37.462,14.431-53.537
					"/>
				<path style="fill:none;stroke:#010214;stroke-miterlimit:10;" d="M451.052,632.139c-45.466-39.733-95.984-66.981-147.683-84.299
					c-44.45-14.889-90.992-23.612-136.102-34.679c-34.76-8.528-69.423-21.092-103.341-35.653
					c-18.902-8.115-38.312-15.561-55.129-28.456c-16.599-12.728-29.823-33.677-45.329-49.57
					c-28.744-29.46-71.531-45.405-92.686-83.1c-9.055-16.134-16.928-36.073-13.07-55.342c6.782-33.864,30.139-60.301,43.704-91.009
					c14.836-33.586,16.742-73.352,5.664-110.576c-6.707-22.536-19.653-43.676-30.473-64.099
					c-10.504-19.827-20.593-40.432-25.744-63.497c-4.6-20.596-0.671-43.938,12.499-56.347"/>
				<path style="fill:none;stroke:#010214;stroke-miterlimit:10;" d="M455.814,631.616c-45.884-38.868-95.794-66.75-147.565-84.089
					c-44.378-14.863-90.945-23.42-135.907-34.922c-34.568-8.843-69.004-22.13-102.529-37.687
					c-16.957-7.869-34.748-14.882-50.14-27.39C4.456,435.162-7.665,416.445-21.32,401.46
					c-25.086-27.527-61.956-43.348-80.155-77.101c-7.877-14.609-14.352-33.28-10.605-50.633
					c7.504-34.756,31.921-61.948,45.758-93.762c15.21-34.972,15.736-76.627,2.419-113.98c-8.248-23.136-22.963-44.314-35.53-64.949
					c-12.195-20.024-24.018-41-30.687-65.03c-5.808-20.929-2.95-45.748,10.527-59.057"/>
				<path style="fill:none;stroke:#010214;stroke-miterlimit:10;" d="M460.597,631.065c-46.278-37.998-95.623-66.524-147.45-83.878
					c-44.309-14.837-90.896-23.236-135.716-35.165c-34.397-9.155-68.603-22.974-101.735-39.73
					c-15.293-7.734-31.333-14.696-45.179-26.42c-13.665-11.57-24.584-29.204-36.644-42.7
					c-20.909-23.399-51.337-41.028-67.635-71.785c-7.175-13.54-11.399-31.651-8.012-46.147
					c8.334-35.675,33.323-63.669,47.674-96.785c15.572-35.936,14.375-80.245-0.952-117.23c-9.846-23.76-26.094-44.758-40.555-65.442
					c-13.736-19.648-29.348-42.088-35.605-66.253c-5.584-21.565-6.706-45.915,8.519-61.667"/>
				<path style="fill:none;stroke:#010214;stroke-miterlimit:10;" d="M465.395,630.488c-46.647-37.13-95.519-66.287-147.337-83.667
					c-44.219-14.831-90.843-23.059-135.53-35.409c-34.245-9.464-68.315-23.8-100.96-41.782
					c-13.625-7.505-28.616-14.399-40.246-25.544c-11.565-11.083-21.667-26.539-32.284-39.467
					c-17.261-21.02-44.656-40.455-55.14-67.145c-4.865-12.386-8.989-27.915-5.297-41.887c9.849-37.274,34.946-65.488,49.444-100.068
					C13.829,157.873,10.983,112.242-6.4,75.199C-17.777,50.958-35.848,30.217-51.938,9.612
					c-15.33-19.632-32.861-42.138-40.491-67.17c-6.649-21.814-9.047-47.353,6.476-64.178"/>
				<path style="fill:none;stroke:#010214;stroke-miterlimit:10;" d="M470.205,629.884c-46.992-36.252-95.39-66.072-147.226-83.455
					c-44.154-14.808-90.784-22.893-135.349-35.653c-34.106-9.766-68.06-24.273-100.204-43.844
					c-12.03-7.324-24.719-14.398-35.342-24.762c-10.471-10.216-18.99-24.211-27.913-36.368
					c-13.917-18.959-34.096-38.935-42.682-63.173c-3.796-10.714-5.542-27.173-2.465-37.854
					c10.995-38.162,36.457-67.592,51.062-103.598c15.952-39.327,11.573-86.092-8.058-123.248
					C9.016,53.301-10.942,32.982-28.441,12.536C-45.279-7.137-63.354-28.825-73.78-55.252c-8.082-20.486-11.283-51.84,4.4-66.592"/>
				<path style="fill:none;stroke:#010214;stroke-miterlimit:10;" d="M475.024,629.254c-47.314-35.372-95.278-65.86-147.117-83.245
					c-44.092-14.786-90.718-22.737-135.173-35.899c-33.971-10.058-68.057-24.251-99.468-45.916
					c-10.395-7.169-21.831-14.275-30.468-24.074c-8.602-9.759-16.256-21.563-23.534-33.404
					c-11.29-18.369-25.116-37.118-30.274-59.862c-2.516-11.095-2.606-23.918,0.478-34.052
					c11.778-38.697,37.827-69.825,52.518-107.365c16.055-41.024,9.853-88.972-11.783-126.004
					C35.667,54.552,13.898,34.699-5.135,14.572c-18.409-19.467-38.218-41.028-50.14-68.114
					c-9.033-20.522-13.721-53.188,2.294-68.907"/>
				<path style="fill:none;stroke:#010214;stroke-miterlimit:10;" d="M479.85,628.598c-47.616-34.492-95.18-65.654-147.009-83.035
					c-44.032-14.766-90.643-22.592-135.001-36.146c-33.818-10.334-68.092-24.836-98.751-47.998
					C90.34,454.809,81,446.894,73.464,437.939c-7.254-8.62-13.986-19.797-19.147-30.572c-8.636-18.032-16.687-35.995-17.927-57.205
					c-0.6-10.261,0.417-21.273,3.526-30.483c13.301-39.409,39.096-72.188,53.807-111.358c16.075-42.804,8-91.868-15.618-128.583
					c-16.088-25.01-39.338-44.293-60.139-64.004C-2.307-3.474-23.261-24.694-36.924-52.419
					c-10.138-20.572-16.158-54.41,0.159-71.126"/>
				<path style="fill:none;stroke:#010214;stroke-miterlimit:10;" d="M484.681,627.916c-47.897-33.612-94.873-65.002-146.904-82.826
					c-75.411-25.833-167.966-26.022-232.887-86.485c-34.012-31.676-53.953-82.877-34.549-133.191
					c15.538-40.287,40.697-74.686,54.92-115.566c15.547-44.685,6.505-94.18-19.558-130.981
					C87.971,53.827,62.937,35.309,40.843,16.039C19.117-2.91-5.001-23.96-18.736-51.874c-9.967-20.258-19.454-54.585-2.003-73.249"
					/>
				<path style="fill:none;stroke:#010214;stroke-miterlimit:10;" d="M497.866,625.127c-46.115-35.133-92.129-65.46-143.165-82.586
					c-57.183-19.189-117.225-25.849-173.974-49.133c-19.802-8.124-40.7-18.865-57.653-34.394
					c-34.121-31.257-54.773-80.841-38.062-132.672c0.496-1.537,0.985-3.155,1.528-4.65c13.974-38.501,36.965-73.024,49.136-112.684
					c1.338-4.36,2.366-9.167,3.29-13.788c8.488-42.439-4.212-85.265-27.294-116.478C93.62,54.331,68.54,36.37,46.43,17.511
					c-11.442-9.76-23.046-19.986-33.329-31.07c-9.92-10.693-19.343-22.51-26.332-35.706c-10.148-19.16-19.774-54.008-2.644-72.854"
					/>
				<path style="fill:none;stroke:#010214;stroke-miterlimit:10;" d="M511.021,622.158c-44.193-36.814-89.428-66.014-139.458-82.475
					c-56.791-18.686-116.451-24.622-172.901-47.151c-19.713-7.867-40.48-18.322-57.469-33.482
					c-34.192-30.512-56.334-79.47-41.555-132.046c0.438-1.557,0.867-3.193,1.354-4.708c12.524-38.937,34.396-74.266,45.055-114.277
					c1.172-4.401,2.016-9.243,2.762-13.893c6.885-42.937-7.592-85.141-31.182-115.562c-18.44-23.78-43.453-41.189-65.609-59.63
					C40.567,9.403,28.954-0.61,18.662-11.503C8.735-22.008-0.683-33.658-7.718-46.708c-10.214-18.948-20.089-53.428-3.279-72.452"/>
				<path style="fill:none;stroke:#010214;stroke-miterlimit:10;" d="M524.145,619.01c-42.092-38.638-86.802-66.685-135.784-82.49
					c-56.334-18.176-115.464-22.812-171.834-45.216c-19.716-7.836-40.259-17.791-57.281-32.585
					c-34.282-29.795-57.857-78.088-45.025-131.316c0.379-1.574,0.748-3.228,1.18-4.76c11.079-39.326,31.825-75.447,40.974-115.759
					c1.007-4.438,1.667-9.31,2.235-13.986c5.264-43.342-11.019-85.026-35.042-114.567C104.794,55.246,79.811,38.34,57.605,20.307
					C46.148,11.003,34.527,1.205,24.227-9.497c-9.931-10.319-19.344-21.8-26.424-34.705c-10.278-18.735-20.398-52.845-3.909-72.041"
					/>
				<path style="fill:none;stroke:#010214;stroke-miterlimit:10;" d="M537.236,615.681c-39.779-40.579-84.27-67.481-132.145-82.631
					c-55.956-17.708-114.699-21.653-170.772-43.328c-19.627-7.587-40.098-17.259-57.09-31.702
					c-34.248-29.11-59.411-76.581-48.472-130.481c0.322-1.588,0.629-3.259,1.005-4.807c9.64-39.668,29.25-76.566,36.895-117.129
					c0.843-4.471,1.319-9.368,1.71-14.066c3.634-43.709-14.348-84.73-38.873-113.493C110.376,55.623,85.441,39.248,63.192,21.63
					C51.73,12.554,40.103,2.969,29.796-7.542C19.861-17.675,10.455-28.989,3.332-41.748C-7.008-60.27-17.369-94.007-1.203-113.37"/>
				<path style="fill:none;stroke:#010214;stroke-miterlimit:10;" d="M550.294,612.173c-37.191-42.564-81.927-68.385-128.542-82.897
					c-55.538-17.29-114.654-19.985-169.718-41.485c-19.742-7.708-39.677-17.201-56.897-30.834
					c-34.05-26.956-60.861-75.183-51.893-129.543c0.264-1.602,0.511-3.286,0.832-4.849c8.208-39.965,26.672-77.624,32.82-118.388
					c0.679-4.501,0.973-9.418,1.187-14.134c1.996-44.016-17.635-84.335-42.675-112.34c-19.448-21.751-44.34-37.598-66.629-54.801
					C57.314,14.056,45.683,4.684,35.37-5.638c-9.938-9.947-19.336-21.095-26.501-33.708c-10.401-18.309-20.999-51.67-5.155-71.195"
					/>
				<path style="fill:none;stroke:#010214;stroke-miterlimit:10;" d="M563.318,608.484c-34.398-44.636-79.596-69.424-124.977-83.287
					c-55.169-16.853-113.89-18.883-168.67-39.686c-19.639-7.458-39.466-16.696-56.702-29.979
					c-34.197-26.355-62.284-73.776-55.289-128.502c0.206-1.615,0.392-3.31,0.658-4.885c6.782-40.217,24.089-78.621,28.75-119.536
					c0.516-4.527,0.628-9.459,0.665-14.188c0.352-44.263-20.877-83.841-46.446-111.109c-19.781-21.094-44.581-36.319-66.942-53.183
					c-11.474-8.653-23.1-17.78-33.418-27.913c-9.939-9.761-19.328-20.743-26.534-33.211c-10.46-18.096-21.291-51.08-5.771-70.761"/>
				<path style="fill:none;stroke:#010214;stroke-miterlimit:10;" d="M576.305,604.617c-31.344-46.7-77.373-70.586-121.451-83.801
					c-54.804-16.431-113.135-17.81-167.631-37.931c-19.382-7.156-39.254-15.875-56.504-29.139
					c-34.563-26.578-63.682-72.358-58.656-127.36c0.149-1.625,0.274-3.33,0.485-4.916c5.365-40.424,21.503-79.558,24.685-120.575
					c0.353-4.55,0.287-9.487,0.147-14.23c-1.322-44.534-23.93-83.218-50.187-109.801c-20.156-20.406-44.84-35.102-67.242-51.562
					C68.476,16.872,56.849,7.963,46.529-1.981c-9.939-9.576-19.318-20.394-26.564-32.715C9.447-52.579-1.612-85.182,13.583-105.014"
					/>
				<path style="fill:none;stroke:#010214;stroke-miterlimit:10;" d="M589.256,600.569c-28.041-48.704-75.239-71.862-117.966-84.436
					c-54.445-16.023-112.387-16.766-166.6-36.217c-19.286-6.92-39.04-15.401-56.304-28.312
					c-34.752-25.988-65.06-70.929-61.995-126.116c0.091-1.634,0.156-3.346,0.312-4.942c3.957-40.589,18.911-80.432,20.627-121.505
					c0.191-4.569-0.054-9.511-0.37-14.26c-2.969-44.648-27.088-82.55-53.897-108.416c-20.437-19.719-45.087-33.883-67.528-49.937
					C74.061,18.22,62.436,9.528,52.113-0.228c-9.937-9.392-18.607-19.893-26.59-32.22c-11.505-17.764-21.161-50.825-6.987-69.868"/>
				<path style="fill:none;stroke:#010214;stroke-miterlimit:10;" d="M602.169,596.342c-24.524-50.607-73.16-73.242-114.522-85.193
					c-54.091-15.629-111.648-15.749-165.578-34.545c-19.19-6.688-38.826-14.938-56.102-27.498
					c-34.96-25.414-66.419-69.488-65.305-124.772c0.033-1.641,0.039-3.359,0.139-4.963c2.558-40.711,16.314-81.244,16.578-122.326
					c0.029-4.585-0.394-9.527-0.884-14.277c-4.612-44.706-30.194-81.792-57.575-106.956c-20.703-19.028-45.323-32.66-67.801-48.309
					c-11.472-7.987-23.093-16.462-33.417-26.03C47.767-7.733,39.1-18.082,31.088-30.252C19.545-47.786,9.633-80.478,23.5-99.661"/>
				<path style="fill:none;stroke:#010214;stroke-miterlimit:10;" d="M614.992,591.955c-20.839-52.379-71.087-74.714-111.12-86.075
					c-53.742-15.251-110.919-14.764-164.566-32.921c-19.094-6.462-38.612-14.488-55.898-26.7
					c-35.186-24.856-67.76-68.038-68.579-123.332c-0.024-1.647-0.079-3.368-0.032-4.979c1.169-40.79,13.714-81.993,12.542-123.037
					c-0.131-4.598-0.732-9.534-1.395-14.282c-6.248-44.709-33.247-80.95-61.217-105.424c-20.953-18.335-45.547-31.436-68.06-46.681
					C85.198,20.759,73.582,12.5,63.258,3.117c-9.93-9.025-18.592-19.22-26.632-31.235c-11.58-17.306-21.743-49.626-8.181-68.944"/>
				<path style="fill:none;stroke:#010214;stroke-miterlimit:10;" d="M627.525,587.489c-17.085-54.022-69.023-76.255-107.75-87.104
					c-53.357-14.948-110.513-14.461-163.562-31.379c-18.882-6.022-38.398-14.058-55.69-25.929
					c-35.427-24.319-69.08-66.588-71.803-121.812c-0.081-1.651-0.195-3.373-0.203-4.989c-0.202-40.83,11.122-82.674,8.536-123.638
					c-0.291-4.607-1.066-9.534-1.901-14.275c-7.871-44.661-36.386-80.742-64.812-103.834c-21.113-17.151-45.73-30.317-68.3-45.067
					C90.599,21.984,78.97,13.867,68.649,4.667c-9.923-8.845-18.579-18.891-26.643-30.752c-11.612-17.081-22.018-49.029-8.759-68.473
					"/>
				<path style="fill:none;stroke:#010214;stroke-miterlimit:10;" d="M639.801,582.942c-13.229-55.501-66.799-77.897-104.414-88.273
					c-53.01-14.622-109.808-13.576-162.567-29.912c-18.784-5.817-38.184-13.646-55.479-25.182
					c-35.684-23.801-70.379-65.139-74.98-120.211c-0.138-1.653-0.31-3.375-0.372-4.995c-1.558-40.829,8.536-83.29,4.559-124.132
					c-0.449-4.612-1.397-9.525-2.403-14.256c-9.478-44.565-39.317-79.722-68.362-102.188c-21.318-16.49-45.944-29.132-68.523-43.467
					c-11.43-7.256-23.051-15.171-33.368-24.19c-9.497-8.303-19.004-18.45-26.647-30.276c-11.369-17.593-22.281-48.434-9.323-67.996"
					/>
				<path style="fill:none;stroke:#010214;stroke-miterlimit:10;" d="M651.865,578.304c-9.373-56.836-64.422-79.598-101.114-89.574
					c-52.668-14.319-109.112-12.734-161.582-28.511c-18.687-5.619-37.97-13.251-55.265-24.458
					c-35.956-23.299-71.664-63.683-78.11-118.531c-0.194-1.653-0.424-3.374-0.539-4.996c-2.898-40.793,5.956-83.84,0.608-124.523
					c-0.607-4.615-1.725-9.51-2.9-14.227c-11.071-44.423-42.188-78.639-71.87-100.485c-21.51-15.831-46.144-27.952-68.731-41.877
					c-11.416-7.038-23.028-14.752-33.339-23.594c-9.486-8.135-18.984-18.132-26.646-29.807C40.981-39.642,29.841-70.119,42.5-89.792
					"/>
				<path style="fill:none;stroke:#010214;stroke-miterlimit:10;" d="M663.748,573.568c-5.569-58.038-61.857-81.345-97.855-91
					c-52.32-14.033-108.105-11.333-160.61-27.169c-18.703-5.641-37.756-12.87-55.048-23.753
					c-36.245-22.81-72.935-62.219-81.197-116.771c-0.25-1.652-0.538-3.369-0.706-4.992c-4.224-40.72,3.378-84.326-3.317-124.814
					c-0.763-4.614-2.05-9.487-3.393-14.187c-12.648-44.236-45-77.498-75.337-98.726c-21.689-15.177-46.33-26.776-68.924-40.294
					c-11.401-6.821-23.001-14.337-33.305-23.003c-9.473-7.968-18.96-17.817-26.639-29.343C45.997-37.621,34.637-67.733,46.999-87.51
					"/>
				<path style="fill:none;stroke:#010214;stroke-miterlimit:10;" d="M675.473,568.729c-1.86-59.119-59.08-83.132-94.636-92.548
					c-51.995-13.77-107.426-10.573-159.649-25.881c-18.606-5.454-37.544-12.504-54.831-23.066
					c-36.55-22.332-74.197-60.74-84.241-114.93c-0.306-1.649-0.65-3.361-0.871-4.984c-5.536-40.612,0.803-84.748-7.219-125.006
					c-0.919-4.611-2.336-9.445-3.883-14.136c-14.293-43.339-47.008-76.69-78.766-96.911c-22.44-14.289-46.503-25.602-69.104-38.718
					c-11.383-6.606-22.971-13.926-33.265-22.418C79.55,2.328,69.507-7.252,62.38-18.753C50.741-37.537,40.074-62.36,51.431-85.287"
					/>
				<path style="fill:none;stroke:#010214;stroke-miterlimit:10;" d="M687.059,563.785c1.719-60.092-56.076-84.954-91.461-94.214
					c-51.676-13.524-106.758-9.846-158.701-24.642c-18.508-5.272-37.334-12.15-54.613-22.396
					c-36.87-21.863-75.449-59.247-87.243-113.01c-0.361-1.645-0.762-3.35-1.036-4.971c-6.833-40.471-1.77-85.106-11.097-125.102
					c-1.074-4.604-2.656-9.414-4.368-14.075c-15.818-43.069-49.739-75.454-82.156-95.041c-22.566-13.634-46.664-24.43-69.27-37.148
					c-11.364-6.393-22.937-13.518-33.221-21.839C84.451,3.708,74.437-5.715,67.281-17.08C55.596-35.64,44.774-60.139,55.809-83.117"
					/>
				<path style="fill:none;stroke:#010214;stroke-miterlimit:10;" d="M698.519,558.733c5.141-60.967-52.844-86.811-88.329-95.994
					c-51.363-13.293-106.103-9.15-157.767-23.449c-18.412-5.096-37.124-11.807-54.394-21.741
					c-37.206-21.402-76.693-57.733-90.202-111.011c-0.416-1.639-0.873-3.336-1.199-4.954c-8.118-40.297-4.342-85.4-14.952-125.104
					c-1.228-4.594-2.974-9.375-4.849-14.003c-17.709-43.702-52.644-73.543-85.509-93.115
					c-22.205-13.224-46.813-23.262-69.423-35.582c-11.343-6.181-22.9-13.113-33.173-21.263C89.295,5.037,79.31-4.232,72.128-15.461
					C60.399-33.798,49.427-57.973,60.14-80.995"/>
				<path style="fill:none;stroke:#010214;stroke-miterlimit:10;" d="M709.864,553.571c8.384-61.753-49.39-88.703-85.245-97.886
					c-51.056-13.077-105.573-8.384-156.846-22.301c-57.511-15.61-130.067-56.803-148.656-134.967
					c-10.662-44.833-6.631-96.476-24.111-138.934c-17.516-42.546-55.279-72.234-88.825-91.136
					c-33.35-18.792-71.955-30.764-102.685-54.711C82.353-2.841,47.384-42.933,64.432-78.92"/>
				<path style="fill:none;stroke:#010214;stroke-miterlimit:10;" d="M712.695,552.454c9.961-50.443-33.201-80.412-63.332-92.615
					c-6.403-2.593-13.531-4.632-20.841-6.396c-45.05-10.873-91.282-10.555-136.267-19.396c-6.556-1.288-13.16-2.809-19.4-4.63
					c-50.488-14.736-107.337-46.513-134.227-110.023c-3.711-8.766-6.821-17.947-8.608-26.828
					c-7.115-35.356-5.227-74.722-12.245-110.225c-1.906-9.643-5.187-19.597-9.284-29.114c-5.677-13.188-13.533-24.636-21.65-34.994
					c-18.997-24.241-44.008-41.642-68.373-54.577c-26.914-14.289-56.468-24.468-83.566-39.262
					c-6.839-3.734-13.595-8.087-19.991-12.755C103.162,3.065,92.293-8.437,83.591-21.475C72.841-37.581,66.336-61.73,74.914-80.307"
					/>
				<path style="fill:none;stroke:#010214;stroke-miterlimit:10;" d="M715.524,551.328c11.774-50.604-32.103-81.358-62.262-93.66
					c-6.413-2.616-13.546-4.681-20.848-6.484c-44.772-11.054-90.73-11.288-135.4-20.842c-6.466-1.383-12.973-3.006-19.107-4.922
					c-49.377-15.431-104.979-48.148-129.444-111.93c-3.379-8.81-6.145-18.026-7.647-26.929c-6.023-35.697-3.297-74.97-9.925-110.631
					c-1.797-9.671-5.026-19.691-9.076-29.221c-5.633-13.256-13.536-24.688-21.73-34.947c-19.226-24.073-44.817-40.744-69.468-53.032
					c-27.162-13.539-56.846-22.97-84.176-37.057c-6.896-3.555-13.731-7.738-20.207-12.242
					c-11.911-8.284-23.012-19.521-31.917-32.422c-11.011-15.951-17.668-40.265-9-58.898"/>
				<path style="fill:none;stroke:#010214;stroke-miterlimit:10;" d="M718.439,550.148c13.549-50.74-30.966-82.291-61.202-94.71
					c-6.423-2.638-13.561-4.729-20.856-6.569c-44.532-11.237-89.946-11.49-134.549-22.285c-6.409-1.551-12.796-3.199-18.817-5.217
					c-48.313-16.191-102.668-49.867-124.732-113.921c-3.053-8.862-5.479-18.121-6.701-27.058
					c-4.933-36.057-1.394-75.246-7.655-111.13c-1.693-9.705-4.873-19.795-8.881-29.342c-5.592-13.326-13.546-24.733-21.818-34.903
					c-19.205-23.613-45.469-40.156-70.536-51.447c-27.811-12.528-57.199-21.455-84.75-34.826c-6.95-3.373-13.86-7.384-20.414-11.722
					c-12.069-7.989-23.397-18.953-32.504-31.712c-11.271-15.791-18.083-40.27-9.331-58.962"/>
				<path style="fill:none;stroke:#010214;stroke-miterlimit:10;" d="M721.283,548.994c15.29-50.85-29.781-83.216-60.144-95.773
					c-6.433-2.661-13.576-4.777-20.864-6.657c-44.257-11.413-89.434-12.19-133.712-23.747c-6.322-1.65-12.615-3.4-18.532-5.516
					c-47.372-16.941-100.417-51.723-120.081-116.014c-2.73-8.925-4.821-18.234-5.768-27.215
					c-3.842-36.434,0.485-75.554-5.427-111.721c-1.593-9.744-4.728-19.909-8.694-29.478c-5.555-13.399-13.561-24.79-21.913-34.864
					c-19.429-23.439-46.253-39.216-71.57-49.836c-28.022-11.754-57.527-19.934-85.286-32.584
					c-7.002-3.191-13.984-7.026-20.612-11.197c-12.222-7.69-24.666-18.057-33.077-30.989c-10.653-16.379-19.403-38.344-9.663-59.027
					"/>
				<path style="fill:none;stroke:#010214;stroke-miterlimit:10;" d="M724.12,547.833c16.993-50.94-28.552-84.131-59.092-96.847
					c-6.444-2.683-13.592-4.826-20.874-6.744c-43.988-11.587-88.941-12.885-132.89-25.219c-6.237-1.75-12.438-3.604-18.251-5.819
					c-46.524-17.728-98.207-53.695-115.495-118.2c-2.411-8.997-4.172-18.363-4.848-27.4c-2.754-36.823,2.336-75.895-3.244-112.4
					c-1.496-9.789-4.589-20.033-8.519-29.626c-5.52-13.474-13.582-24.85-22.014-34.83c-19.653-23.26-47.019-38.254-72.573-48.194
					c-28.218-10.976-57.829-18.403-85.785-30.327c-7.05-3.007-14.101-6.665-20.801-10.667c-12.37-7.387-25.054-17.456-33.635-30.25
					c-10.871-16.209-19.84-38.297-9.999-59.092"/>
				<path style="fill:none;stroke:#010214;stroke-miterlimit:10;" d="M726.952,546.666c18.655-51.012-27.281-85.035-58.046-97.929
					c-6.454-2.705-13.652-4.953-20.884-6.832c-43.474-11.29-88.72-14.204-132.082-26.701c-6.117-1.763-12.27-3.805-17.973-6.126
					c-45.745-18.616-96.005-55.715-110.975-120.477c-2.098-9.076-3.533-18.509-3.942-27.612
					c-1.672-37.221,4.156-76.272-1.109-113.168c-1.404-9.84-4.458-20.167-8.355-29.788c-5.488-13.551-13.608-24.913-22.123-34.799
					c-19.875-23.076-47.769-37.272-73.545-46.522c-28.4-10.191-58.105-16.863-86.245-28.056
					c-7.095-2.822-14.213-6.301-20.981-10.131c-12.512-7.08-25.431-16.843-34.18-29.497c-11.087-16.035-20.275-38.244-10.339-59.156
					"/>
				<path style="fill:none;stroke:#010214;stroke-miterlimit:10;" d="M729.778,545.491c13.877-54.12-20.845-83.767-57.005-99.022
					c-6.465-2.727-13.667-4.999-20.894-6.919c-43.242-11.485-88.264-14.918-131.29-28.192c-6.034-1.862-12.098-4.013-17.7-6.436
					c-45.074-19.492-93.852-57.923-106.522-122.844c-1.789-9.166-2.904-18.671-3.051-27.851c-0.6-37.626,5.943-76.686,0.977-114.022
					c-1.316-9.895-4.335-20.31-8.202-29.961c-5.46-13.63-13.641-24.978-22.24-34.771c-20.096-22.886-48.501-36.269-74.485-44.821
					c-28.568-9.402-58.355-15.315-86.668-25.771c-7.137-2.636-14.318-5.933-21.152-9.591c-12.649-6.769-25.796-16.219-34.711-28.73
					c-11.3-15.858-20.71-38.185-10.684-59.219"/>
				<path style="fill:none;stroke:#010214;stroke-miterlimit:10;" d="M732.598,544.309c15.317-54.342-19.373-84.587-55.969-100.123
					c-6.477-2.75-13.682-5.045-20.906-7.007c-43.017-11.68-87.825-15.628-130.512-29.693c-5.952-1.961-11.929-4.224-17.431-6.749
					c-44.494-20.423-91.713-60.251-102.136-125.3c-1.484-9.264-2.286-18.849-2.174-28.115c0.46-38.035,7.695-77.141,3.013-114.96
					c-1.232-9.956-4.22-20.461-8.06-30.147c-5.436-13.711-13.679-25.046-22.364-34.746c-20.316-22.69-49.215-35.245-75.392-43.091
					c-28.721-8.609-58.579-13.758-87.052-23.473c-7.177-2.449-14.417-5.562-21.314-9.046c-12.78-6.455-26.15-15.583-35.228-27.948
					C145.56-51.767,135.928-74.21,146.04-95.37"/>
				<path style="fill:none;stroke:#010214;stroke-miterlimit:10;" d="M735.413,543.119c16.724-54.55-17.871-85.4-54.94-101.235
					c-6.488-2.772-13.698-5.091-20.919-7.094c-42.802-11.876-87.404-16.335-129.75-31.202c-5.872-2.062-11.763-4.437-17.166-7.066
					c-44.005-21.415-89.581-62.695-97.819-127.842c-1.185-9.371-1.678-19.044-1.312-28.406c1.504-38.448,9.411-77.637,4.999-115.98
					c-1.153-10.022-4.113-20.622-7.929-30.343c-5.415-13.794-13.724-25.117-22.495-34.723
					c-20.534-22.489-49.911-34.201-76.267-41.335c-28.86-7.811-58.778-12.195-87.399-21.163c-7.213-2.26-14.51-5.188-21.467-8.496
					c-12.907-6.137-26.492-14.938-35.731-27.153c-11.721-15.497-21.575-38.052-11.384-59.343"/>
				<path style="fill:none;stroke:#010214;stroke-miterlimit:10;" d="M738.223,541.923c23.251-52.234-20.261-87.98-53.915-102.355
					c-6.516-2.783-13.715-5.136-20.932-7.182c-42.596-12.072-87.001-17.039-129.002-32.72c-5.792-2.163-11.599-4.652-16.905-7.386
					c-43.6-22.471-87.451-65.259-93.569-130.47c-0.891-9.485-1.081-19.254-0.465-28.722c2.53-38.864,11.09-78.179,6.934-117.082
					c-1.078-10.093-4.014-20.791-7.811-30.551c-5.398-13.878-13.775-25.189-22.635-34.702
					c-20.751-22.282-50.589-33.137-77.109-39.551C293.83,4.192,263.863,0.577,235.107-7.64c-7.246-2.071-14.596-4.811-21.611-7.942
					c-13.027-5.814-26.822-14.281-36.22-26.345c-11.929-15.312-22.005-37.977-11.74-59.403"/>
				<path style="fill:none;stroke:#010214;stroke-miterlimit:10;" d="M741.028,540.719c19.876-54.789-14.872-87.146-52.897-103.485
					c-6.528-2.805-13.732-5.182-20.947-7.269c-42.233-12.22-86.496-17.008-128.269-34.247c-5.748-2.372-11.449-4.864-16.648-7.71
					c-42.541-23.288-85.803-68.719-89.389-133.182c-0.53-9.519-0.484-19.46,0.367-29.063c3.475-39.198,12.85-78.745,8.816-118.262
					c-1.042-10.207-3.923-20.967-7.704-30.769c-5.385-13.963-13.832-25.262-22.781-34.683
					c-20.967-22.07-51.249-32.054-77.917-37.741c-29.095-6.205-59.098-9.049-87.977-16.511c-7.276-1.88-14.677-4.431-21.746-7.383
					c-13.143-5.489-27.14-13.615-36.694-25.524c-12.134-15.124-22.434-37.896-12.1-59.461"/>
				<path style="fill:none;stroke:#010214;stroke-miterlimit:10;" d="M743.828,539.507c21.189-54.961-13.288-87.943-51.885-104.625
					c-6.54-2.827-13.749-5.227-20.962-7.357c-42.016-12.407-86.156-17.684-127.551-35.783c-5.671-2.479-11.292-5.083-16.395-8.036
					c-42.293-24.471-83.626-71.519-85.278-135.976c-0.247-9.642,0.089-19.702,1.183-29.428c4.455-39.597,14.454-79.39,10.646-119.52
					c-0.977-10.289-3.841-21.151-7.609-30.998c-5.376-14.049-13.896-25.338-22.936-34.665
					c-21.181-21.852-51.89-30.952-78.693-35.907c-29.19-5.396-59.218-7.467-88.209-14.17c-7.303-1.689-14.751-4.048-21.871-6.821
					c-13.252-5.16-27.445-12.94-37.154-24.69c-12.338-14.933-22.862-37.81-12.465-59.517"/>
				<path style="fill:none;stroke:#010214;stroke-miterlimit:10;" d="M746.623,538.288c22.469-55.124-11.681-88.735-50.878-105.773
					c-6.553-2.849-13.767-5.272-20.977-7.444c-41.805-12.594-85.838-18.361-126.849-37.327c-5.596-2.588-11.137-5.305-16.147-8.366
					c-42.106-25.727-81.432-74.415-81.236-138.852c0.03-9.773,0.651-19.96,1.984-29.817c5.409-40.003,16.018-80.082,12.421-120.853
					c-0.915-10.376-3.767-21.343-7.526-31.236c-5.37-14.136-13.966-25.415-23.099-34.648
					c-21.393-21.629-52.512-29.831-79.435-34.048c-29.272-4.585-59.313-5.88-88.402-11.82c-7.327-1.496-14.819-3.663-21.988-6.255
					c-13.356-4.828-27.739-12.255-37.598-23.843c-12.54-14.739-23.288-37.717-12.834-59.572"/>
				<path style="fill:none;stroke:#010214;stroke-miterlimit:10;" d="M749.415,537.061c23.715-55.28-10.055-89.524-49.878-106.931
					c-6.566-2.87-13.785-5.317-20.994-7.532c-41.602-12.781-85.541-19.038-126.161-38.879c-5.521-2.697-10.985-5.529-15.903-8.699
					c-41.969-27.057-79.221-77.4-77.266-141.808c0.301-9.912,1.202-20.233,2.769-30.23c6.335-40.416,17.542-80.821,14.141-122.26
					c-0.859-10.466-3.703-21.541-7.455-31.482c-5.37-14.224-14.042-25.492-23.269-34.631c-21.605-21.4-53.115-28.691-80.143-32.166
					c-29.339-3.772-59.382-4.288-88.557-9.463c-7.349-1.303-14.88-3.276-22.094-5.685c-13.455-4.493-26.889-11.631-38.029-22.985
					c-13.001-13.252-24.358-40.783-13.206-59.625"/>
				<path style="fill:none;stroke:#010214;stroke-miterlimit:10;" d="M752.135,535.863c24.931-55.428-8.405-90.31-48.878-108.101
					c-6.579-2.892-13.804-5.363-21.011-7.621c-41.406-12.971-85.266-19.723-125.487-40.448c-5.447-2.807-10.836-5.756-15.662-9.037
					c-41.872-28.461-76.988-80.473-73.359-144.847c0.567-10.059,1.742-20.52,3.539-30.665
					c7.233-40.839,19.029-81.607,15.811-123.738c-0.807-10.562-3.341-22.286-7.395-31.738
					c-6.244-14.557-13.118-24.595-23.445-34.616c-21.814-21.167-53.699-27.538-80.817-30.267
					c-29.392-2.958-59.424-2.697-88.674-7.105c-7.366-1.11-14.935-2.888-22.192-5.114c-13.548-4.156-27.137-10.955-38.443-22.118
					c-13.212-13.045-24.791-40.721-13.581-59.676"/>
				<path style="fill:none;stroke:#010214;stroke-miterlimit:10;" d="M754.938,534.61c26.111-55.573-6.742-91.093-47.891-109.277
					c-6.592-2.913-13.823-5.407-21.03-7.708c-41.218-13.158-85.014-20.403-124.829-42.013c-5.375-2.917-10.69-5.984-15.426-9.376
					c-41.805-29.932-74.741-83.613-69.533-147.956c0.827-10.215,2.27-20.823,4.291-31.124c8.101-41.275,20.47-82.442,17.418-125.288
					c-0.759-10.661-3.284-22.509-7.35-32.002c-6.28-14.664-13.163-24.651-23.632-34.599C444.935-25.658,412.694-31.093,385.5-33.07
					c-29.431-2.14-59.441-1.097-88.752-4.733c-7.381-0.916-14.984-2.496-22.28-4.537c-13.635-3.815-27.374-10.268-38.844-21.237
					c-13.421-12.835-25.224-40.65-13.963-59.724"/>
				<path style="fill:none;stroke:#010214;stroke-miterlimit:10;" d="M757.739,533.348c27.464-55.211-5.279-92.063-46.909-110.461
					c-6.62-2.926-13.843-5.452-21.049-7.795c-41.039-13.344-84.784-21.085-124.187-43.586c-5.304-3.029-10.546-6.215-15.194-9.717
					c-44.061-33.205-70.814-86.581-65.778-151.141c0.802-10.285,2.785-21.141,5.027-31.605
					c8.938-41.723,21.869-83.326,18.967-126.907c-0.717-10.764-3.236-22.737-7.317-32.273c-6.32-14.77-13.215-24.71-23.826-34.58
					c-22.229-20.68-54.809-25.167-82.064-26.388c-29.456-1.32-59.431,0.505-88.791-2.355c-7.393-0.72-15.026-2.102-22.359-3.958
					c-13.716-3.471-27.598-9.574-39.229-20.344c-13.629-12.621-25.657-40.572-14.349-59.769"/>
				<path style="fill:none;stroke:#010214;stroke-miterlimit:10;" d="M760.537,532.077c28.57-55.331-3.643-92.98-45.934-111.654
					c-46.629-20.589-99.837-25.074-144.629-53.047c-49.688-31.031-86.81-92.25-77.062-164.463
					c7.055-52.261,30.869-104.729,26.204-160.7c-2.168-26.008-13.467-52.806-31.324-67.113
					c-24.315-19.482-55.335-23.956-82.636-24.418c-29.466-0.499-59.325,2.025-88.792,0.027c-20.496-1.39-44.363-6.62-62.027-22.816
					c-13.693-12.554-26.088-40.488-14.739-59.812"/>
				<path style="fill:none;stroke:#010214;stroke-miterlimit:10;" d="M768.835,533.55c28.709-56.244,0.224-96.659-43.982-117.604
					c-10.611-5.028-21.994-8.732-32.983-12.232c-30.102-9.589-61.507-16.577-91.044-30.679c-8.138-3.885-16.056-8.16-22.871-13.064
					c-21.287-15.318-42.037-36.829-52.872-65.845c-13.067-34.994-14.747-69.622-10.647-106.803
					c5.624-51,29.139-102.712,22.26-154.576c-3.519-26.534-13.235-47.219-30.574-63.644c-22.754-21.554-56.82-25.87-84.38-26.388
					c-28.132-0.529-56.782,2.495-84.984,1.041c-19.727-1.018-42.514-5.56-59.87-20.351c-13.163-11.217-26.607-36.78-17.35-56.315"/>
				<path style="fill:none;stroke:#010214;stroke-miterlimit:10;" d="M775.033,536.189c28.862-56.953,4.086-100.496-41.911-123.699
					c-10.746-5.421-22.365-9.349-33.538-12.964c-30.722-9.939-63.259-16.476-93.237-32.002c-8.121-4.206-15.902-8.911-22.371-14.242
					c-20.297-16.724-38.825-40.311-46.674-70.45c-9.654-37.07-8.392-74.036-3.457-111.074c6.25-46.904,24.42-98.683,18.805-148.238
					c-2.803-24.743-14.676-45.876-29.636-60.311c-23.255-22.437-57.956-27.873-86.218-28.459c-26.883-0.558-54.3,2.694-81.266,1.628
					c-18.972-0.75-40.836-5.367-57.684-18.189c-13.57-10.328-25.169-32.771-19.722-52.702"/>
				<path style="fill:none;stroke:#010214;stroke-miterlimit:10;" d="M774.693,542.609c28.604-55.453,9.17-106.413-39.318-130.089
					c-11.157-5.448-22.593-10.092-34.049-13.935c-31.532-10.577-65.113-17.503-95.321-33.98
					c-8.017-4.373-15.724-9.783-21.828-15.583c-19.431-18.463-35.48-44.32-40.301-75.481c-6.038-39.031-1.559-77.541,3.998-115.637
					c6.804-46.641,20.931-92.997,16.236-141.609c-2.168-22.44-13.919-43.753-28.363-57.241
					c-24.999-23.344-59.11-30.25-88.074-31.064c-25.642-0.721-52.317,2.798-77.676,1.442c-18.654-0.997-37.944-4.62-55.457-16.579
					c-13.383-9.139-25.207-29.57-21.736-49.094"/>
				<path style="fill:none;stroke:#010214;stroke-miterlimit:10;" d="M774.433,548.977c28.975-55.883,13.243-110.459-36.716-136.483
					c-11.305-5.888-22.842-10.741-34.563-14.899c-32.125-11.396-66.695-17.119-97.406-35.943
					c-8.055-4.937-15.553-10.661-21.29-16.921c-19.864-21.672-30.492-48.147-34.028-80.572
					c-4.313-39.556,5.194-81.622,11.243-120.441c6.688-42.925,21.929-91.673,13.854-134.91
					c-4.242-22.716-12.702-39.27-27.028-54.231c-23.687-24.738-60.296-32.483-90.02-33.589c-24.468-0.91-49.461,1.765-74.158,1.106
					c-17.892-0.478-36.733-4.554-53.236-15.09c-12.829-8.191-25.069-26.477-23.623-45.385"/>
				<path style="fill:none;stroke:#010214;stroke-miterlimit:10;" d="M774.294,555.268c30.469-58.471,15.208-113.931-34.111-142.881
					c-11.085-6.507-23.193-11.6-35.081-15.857c-32.463-11.622-68.633-17.476-99.496-37.887c-8.028-5.31-15.387-11.545-20.76-18.256
					c-19.129-23.89-27.607-53.115-27.857-85.721c-0.317-41.265,11.392-83.785,18.271-125.483
					c7.025-42.584,18.481-87.489,11.66-128.148c-3.451-20.572-12.312-36.938-25.632-51.284
					c-24.414-26.293-61.611-34.206-92.059-36.024c-23.087-1.378-47.172,1.307-70.712,0.623c-17.122-0.498-35.047-4.229-51.022-13.72
					c-12.359-7.342-24.779-23.525-25.382-41.58"/>
				<path style="fill:none;stroke:#010214;stroke-miterlimit:10;" d="M774.344,561.447c30.96-59.135,18.938-117.987-31.509-149.284
					c-11.204-6.951-23.492-12.349-35.605-16.804c-33.009-12.139-70.51-17.747-101.59-39.803
					c-8.004-5.68-15.225-12.434-20.238-19.587c-18.278-26.078-23.678-56.755-21.795-90.928
					c2.415-43.836,17.611-87.28,25.072-130.763c6.863-39.996,15.451-80.638,9.65-121.329c-2.811-19.722-12.589-35.504-24.178-48.399
					c-24.485-27.243-62.662-36.211-94.19-38.358c-22.394-1.525-44.992,1.057-67.342,0.001c-16.317-0.771-34.648-3.305-48.82-12.463
					c-11.552-7.465-24.201-18.894-27.011-37.682"/>
				<path style="fill:none;stroke:#010214;stroke-miterlimit:10;" d="M774.683,567.457c30.442-57.401,25.059-122.51-28.923-155.69
					c-11.746-7.22-23.789-13.087-36.135-17.736c-33.545-12.632-72.43-17.992-103.693-41.679
					c-7.981-6.047-14.989-13.309-19.725-20.912c-17.857-28.662-20.471-61.896-15.851-96.196
					c6.116-45.405,23.442-90.316,31.635-136.283c6.477-36.341,14.607-75.991,7.819-114.459
					c-3.136-17.774-11.67-33.845-22.668-45.578c-26.349-28.11-64.444-38.489-96.415-40.575c-21.072-1.375-43.15,0.566-64.051-0.752
					c-15.872-1.001-31.622-4.043-46.631-11.315c-11.608-5.624-23.855-17.666-28.509-33.692"/>
				<path style="fill:none;stroke:#010214;stroke-miterlimit:10;" d="M775.127,573.404c30.838-57.93,28.767-126.612-26.339-162.107
					c-11.897-7.663-24.001-13.638-36.67-18.661c-34.504-13.681-74.136-18.065-105.801-43.534
					c-7.959-6.401-14.826-14.198-19.221-22.235c-17.048-31.174-16.752-66.434-10.015-101.529
					c9.098-47.388,29.086-93.565,37.97-142.034c6.475-35.33,13.26-73.929,6.187-107.542c-3.662-17.402-10.274-29.524-21.097-42.829
					c-24.497-30.112-66.002-40.174-98.731-42.69c-20.028-1.54-40.95-0.207-60.842-1.648c-14.776-1.07-29.99-3.395-44.457-10.286
					c-11.659-5.554-23.349-15.381-29.87-29.621"/>
				<path style="fill:none;stroke:#010214;stroke-miterlimit:10;" d="M775.52,579.376c31.256-58.488,32.924-128.58-23.74-168.537
					c-11.821-8.336-24.485-14.866-37.208-19.585c-35.355-13.113-76.344-18.484-107.91-45.386
					c-7.94-6.767-14.663-15.092-18.724-23.56c-16.171-33.721-13.02-71.047-4.278-106.929
					c11.996-49.237,34.424-97.024,44.089-148.001c5.994-31.614,12.415-69.099,4.763-100.583c-4-16.459-9.678-27.578-19.463-40.158
					c-24.941-32.065-67.71-41.371-101.131-44.714c-18.869-1.888-38.58-1.338-57.718-2.694c-14.122-1.001-28.593-3.526-42.299-9.382
					c-11.547-4.933-22.951-13.287-31.09-25.477"/>
				<path style="fill:none;stroke:#010214;stroke-miterlimit:10;" d="M775.846,585.384c31.975-59.189,36.444-132.569-21.123-174.982
					c-11.933-8.791-24.804-15.631-37.749-20.507c-35.927-13.535-78.361-18.734-110.02-47.237
					c-7.923-7.134-13.949-15.758-18.232-24.887c-16.732-35.669-8.432-78.633,1.362-112.393
					c14.854-51.202,39.585-100.598,49.993-154.177c5.928-30.516,9.083-61.698,3.55-93.588c-2.552-14.706-9.963-27.172-17.766-37.568
					c-24.736-32.955-68.898-42.873-103.615-46.646c-18.177-1.975-36.477-2.13-54.681-3.886c-13.457-1.298-27.586-3.292-40.161-8.601
					c-11.127-4.697-22.629-10.844-32.167-21.269"/>
				<path style="fill:none;stroke:#010214;stroke-miterlimit:10;" d="M776.078,591.44c32.436-59.799,40.05-136.517-18.486-181.44
					c-12.041-9.241-25.048-16.231-38.292-21.43c-36.164-14.198-80.698-18.319-112.13-49.091
					c-7.896-7.73-13.769-16.609-17.745-26.216c-15.862-38.332-4.506-83.271,6.906-117.917
					c17.371-52.736,44.84-103.723,55.683-160.551c5.268-27.605,8.637-57.56,2.547-86.564c-2.54-12.097-9.002-26.138-16.007-35.061
					c-26.948-34.326-70.912-44.391-106.179-48.484c-17.179-1.994-34.742-3.035-51.734-5.223
					c-12.753-1.642-25.866-3.879-38.045-7.943c-11.072-3.693-22.637-9.027-33.101-17.003"/>
				<path style="fill:none;stroke:#010214;stroke-miterlimit:10;" d="M786.647,591.671c19.869-36.927,36.754-83.417,22.379-130.656
					c-13.164-43.26-46.953-66.228-78.435-79.096c-35.988-14.71-85.287-17.196-114.536-49.676
					c-36.286-40.294-23.101-102.889-5.92-151.065c19.678-55.181,48.194-109.143,60.012-167.901
					c7.161-35.608,9.465-80.513-13.185-112.079c-26.575-37.037-73.255-44.446-109.117-49.002
					c-40.084-5.092-79.951-8.318-118.819-25.474"/>
				<path style="fill:none;stroke:#010214;stroke-miterlimit:10;" d="M427.517-178.601c39.293,17.882,79.878,20.811,120.238,25.619
					c37.084,4.418,82.287,10.924,112.58,44.586c27.022,30.028,29.641,79.415,22.706,117.693
					c-10.548,58.222-38.511,112.147-57.786,166.827c-13.35,37.872-28.424,89.765-8.73,131.085
					c3.166,6.642,7.497,13.052,12.787,18.504c30.223,31.15,74.875,35.902,109.817,49.977c19.408,7.818,40.498,18.759,56.103,36.542
					c17.315,19.733,27.774,41.346,30.17,69.529c2.97,34.924-11.288,68.674-26.222,97.54"/>
				<path style="fill:none;stroke:#010214;stroke-miterlimit:10;" d="M428.901-185.163c39.765,18.382,80.729,21.124,121.685,25.042
					c38.276,3.662,84.929,8.122,116.087,39.436C697-90.207,706.242-44.11,699.435,2.191c-8.565,58.262-36.438,112.234-54.992,166.1
					c-12.969,37.653-27.965,88.768-9.366,129.945c2.967,6.569,7.059,12.902,12.061,18.303c28.58,30.858,71.578,36.353,105.29,49.781
					c19.305,7.69,40.017,18.028,56.207,34.431c17.977,18.213,29.962,38.349,32.925,66.016c3.629,33.879-10.343,67.923-24.487,96.601
					"/>
				<path style="fill:none;stroke:#010214;stroke-miterlimit:10;" d="M431.086-192.098c40.25,18.812,81.478,21.572,123.124,24.236
					c39.322,2.515,84.191,7.033,119.513,33.999c36.196,27.634,49.066,80.08,43.075,127.597
					c-7.291,57.828-34.136,111.923-52.072,165.412c-12.577,37.506-27.433,87.865-9.908,128.922
					c2.776,6.504,6.633,12.755,11.354,18.123c26.917,30.604,68.331,36.859,100.849,49.596c19.203,7.521,39.581,17.253,56.312,32.217
					c18.589,16.625,32.113,35.196,35.663,62.349c4.289,32.806-9.353,67.177-22.688,95.669"/>
				<path style="fill:none;stroke:#010214;stroke-miterlimit:10;" d="M433.011-198.951c39.465,21.185,83.408,21.779,124.535,23.465
					c40.365,1.655,85.16,4.022,122.807,28.535c40.792,26.56,59.137,78.846,53.481,131.901
					c-6.117,57.379-31.9,111.527-49.252,164.619c-12.223,37.4-26.946,86.988-10.527,127.987c2.584,6.453,6.206,12.649,10.644,17.99
					c25.292,30.433,65.044,37.502,96.435,49.656c19.113,7.401,39.169,16.518,56.374,30.024
					c19.122,15.012,34.173,31.956,38.295,58.595c4.907,31.71-8.408,66.402-20.955,94.678"/>
				<path style="fill:none;stroke:#010214;stroke-miterlimit:10;" d="M434.726-205.739c39.858,21.702,84.402,21.939,125.921,22.722
					c41.374,0.781,86.362,1.526,125.977,23.039c44.929,24.399,69.081,77.899,63.977,135.788
					c-5.017,56.909-29.726,111.055-46.521,163.73c-11.905,37.34-26.499,86.147-11.213,127.143
					c2.392,6.415,5.776,12.571,9.933,17.903c23.661,30.347,61.734,38.312,92.054,49.948c19.027,7.303,38.786,15.811,56.395,27.849
					c19.573,13.382,36.146,28.638,40.825,54.757c5.481,30.592-7.503,65.602-19.282,93.631"/>
				<path style="fill:none;stroke:#010214;stroke-miterlimit:10;" d="M436.273-212.476c40.245,22.228,85.284,21.984,127.281,21.998
					c42.534,0.013,87.563-1.15,129.024,17.508c48.895,22.004,79.651,77.502,74.56,139.255
					c-4.608,55.898-27.399,109.889-43.872,162.756c-11.626,37.311-26.086,85.348-11.958,126.394c2.2,6.39,5.346,12.487,9.222,17.859
					c22.024,30.53,58.514,39.326,87.711,50.46c18.945,7.225,38.434,15.121,56.379,25.688c19.94,11.741,38.033,25.248,43.258,50.835
					c6.015,29.455-6.635,64.78-17.665,92.535"/>
				<path style="fill:none;stroke:#010214;stroke-miterlimit:10;" d="M437.684-219.176c40.629,22.759,86.298,22.21,128.618,21.285
					c43.419-0.949,88.967-3.889,131.952,11.939c52.714,19.41,89.606,75.333,85.228,142.299
					c-3.623,55.417-25.329,109.244-41.3,161.704c-11.371,37.351-25.704,84.601-12.753,125.744c2.008,6.379,4.918,12.463,8.512,17.86
					c20.392,30.621,55.12,40.421,83.41,51.182c18.876,7.18,38.111,14.44,56.326,23.538c16.367,8.175,41.891,20.25,45.596,46.831
					c4.526,32.467-5.824,63.639-16.1,91.394"/>
				<path style="fill:none;stroke:#010214;stroke-miterlimit:10;" d="M438.985-225.846c41.009,23.296,87.303,22.436,129.93,20.58
					c44.286-1.929,90.398-6.76,134.762,6.329c56.487,16.665,98.67,71.538,95.977,144.914c-2.031,55.328-23.527,109.268-38.8,160.579
					c-11.144,37.441-25.351,83.917-13.592,125.195c1.818,6.381,4.49,12.483,7.805,17.903c18.719,30.6,52.031,41.765,79.156,52.108
					c18.66,7.115,37.847,13.831,56.239,21.396c16.2,6.664,43.65,16.423,47.841,42.745c5.036,31.638-5.01,62.754-14.583,90.21"/>
				<path style="fill:none;stroke:#010214;stroke-miterlimit:10;" d="M440.193-232.495c42.951,21.79,86.961,22.747,131.22,19.878
					c45.14-2.926,92.672-10.519,137.456,0.677c58.799,14.7,108.417,66.913,106.802,147.094
					c-1.103,54.763-21.563,108.544-36.368,159.387c-10.944,37.583-25.025,83.3-14.47,124.752c1.629,6.396,4.065,12.51,7.102,17.988
					c17.123,30.887,48.789,43.212,74.951,53.232c18.394,7.045,37.527,13.025,56.117,19.263c16.056,5.388,45.319,12.629,49.993,38.58
					c5.522,30.663-4.227,61.85-13.115,88.986"/>
				<path style="fill:none;stroke:#010214;stroke-miterlimit:10;" d="M441.322-239.127c43.396,22.277,87.797,22.917,132.486,19.176
					c46.109-3.86,93.957-13.662,140.035-5.016c62.084,11.649,118.019,63.754,117.699,148.832
					c-0.204,54.175-19.648,107.766-34.004,158.13c-10.767,37.775-24.726,82.763-15.383,124.418
					c1.441,6.426,3.643,12.563,6.404,18.116c15.528,31.231,45.389,44.587,70.799,54.551c18.204,7.138,37.228,12.217,55.964,17.136
					c15.878,4.169,46.889,8.797,52.053,34.337c5.993,29.641-3.474,60.929-11.691,87.725"/>
				<path style="fill:none;stroke:#010214;stroke-miterlimit:10;" d="M442.401-245.755c42.16,24.904,90.09,22.997,133.73,18.468
					c47.016-4.88,95.273-16.884,142.499-10.757c65.384,8.483,127.537,59.784,128.667,150.116
					c0.669,53.457-17.776,106.92-31.701,156.817c-10.61,38.019-24.455,82.314-16.323,124.197c1.256,6.468,3.226,12.644,5.712,18.286
					c13.935,31.615,41.965,46.176,66.705,56.059c18.002,7.191,37.038,11.416,55.778,15.013c15.596,2.994,48.359,4.932,54.022,30.013
					c6.45,28.571-2.75,59.992-10.311,86.429"/>
				<path style="fill:none;stroke:#010214;stroke-miterlimit:10;" d="M443.381-252.355c90.158,52.457,188.506-3.622,279.8,1.243
					c66.276,3.531,138.787,54.992,139.687,150.955c0.475,50.662-13.939,98.914-26.636,145.163
					c-11.072,40.328-27.368,90.08-20.131,134.367c10.938,66.932,81.329,83.903,123.253,89.163
					c16.218,2.035,49.49,1.272,55.898,25.619c7.086,26.923-2.057,59.038-8.979,85.097"/>
			</g>
		</g>
	</g>
</g>
</svg>
